<svg height="496pt" viewBox="0 0 496 496" width="496pt" xmlns="http://www.w3.org/2000/svg"><path d="m328 360v128h-320v-400l80-80h240zm0 0" fill="#e6e9ed"/><path d="m104 104v-96h-16l-80 80v16zm0 0" fill="#ccd1d9"/><path d="m88 8v80h-80zm0 0" fill="#ff826e"/><path d="m88 120v256h240v-256zm0 0" fill="#ccd1d9"/><path d="m104 136h384v224h-384zm0 0" fill="#a0d468"/><path d="m245.382812 186.0625c13.785157-11.277344 31.410157-18.0625 50.617188-18.0625 44.183594 0 80 35.816406 80 80 0 19.207031-6.785156 36.832031-18.0625 50.617188l-11.3125 11.3125c-13.792969 11.285156-31.417969 18.070312-50.625 18.070312-44.183594 0-80-35.816406-80-80 0-19.207031 6.785156-36.832031 18.0625-50.617188zm0 0" fill="#b4dd7f"/><path d="m56 176h48v144h-48zm0 0" fill="#fcd770"/><path d="m88 176h16v144h-16zm0 0" fill="#ffc729"/><path d="m496 128h-160v-128h-251.3125l-84.6875 84.6875v411.3125h336v-128h160zm-416-100.6875v52.6875h-52.6875zm240 452.6875h-304v-384h80v-80h224v112h-224v40h-48v160h48v40h224zm-224-168h-32v-128h32zm384 40h-368v-208h368zm0 0"/><path d="m144 176h24v-16h-40v40h16zm0 0"/><path d="m168 320h-24v-24h-16v40h40zm0 0"/><path d="m448 200h16v-40h-40v16h24zm0 0"/><path d="m464 296h-16v24h-24v16h40zm0 0"/><path d="m280 216h32c4.414062 0 8 3.59375 8 8h16c0-13.230469-10.769531-24-24-24h-8v-8h-16v8h-8c-13.230469 0-24 10.769531-24 24v8c0 13.230469 10.769531 24 24 24h32c4.414062 0 8 3.585938 8 8v8c0 4.414062-3.585938 8-8 8h-32c-4.414062 0-8-3.585938-8-8h-16c0 13.230469 10.769531 24 24 24h8v8h16v-8h8c13.230469 0 24-10.769531 24-24v-8c0-13.230469-10.769531-24-24-24h-32c-4.414062 0-8-3.59375-8-8v-8c0-4.40625 3.585938-8 8-8zm0 0"/><path d="m296 336c20.246094 0 40.023438-7.0625 55.6875-19.878906l-10.144531-12.378906c-12.800781 10.480468-28.984375 16.257812-45.542969 16.257812-39.703125 0-72-32.296875-72-72 0-16.558594 5.777344-32.742188 16.257812-45.550781l-12.378906-10.136719c-12.816406 15.664062-19.878906 35.441406-19.878906 55.6875 0 48.519531 39.480469 88 88 88zm0 0"/><path d="m296 176c39.703125 0 72 32.304688 72 72 0 16.558594-5.777344 32.742188-16.257812 45.542969l12.378906 10.144531c12.816406-15.664062 19.878906-35.441406 19.878906-55.6875 0-48.519531-39.480469-88-88-88-20.246094 0-40.023438 7.054688-55.6875 19.871094l10.144531 12.386718c12.800781-10.480468 28.984375-16.257812 45.542969-16.257812zm0 0"/><path d="m288 96h16v16h-16zm0 0"/><path d="m256 96h16v16h-16zm0 0"/><path d="m224 96h16v16h-16zm0 0"/><path d="m176 64h128v16h-128zm0 0"/><path d="m176 32h128v16h-128zm0 0"/><path d="m32 384h16v16h-16zm0 0"/><path d="m64 384h16v16h-16zm0 0"/><path d="m96 384h16v16h-16zm0 0"/><path d="m32 416h136v16h-136zm0 0"/><path d="m32 448h136v16h-136zm0 0"/><path d="m184 416h120v16h-120zm0 0"/><path d="m184 448h120v16h-120zm0 0"/></svg>